<svg aria-hidden="true" style="position: absolute; width: 0; height: 0; overflow: hidden;" version="1.1" xmlns="http://www.w3.org/2000/svg" xmlns:xlink="http://www.w3.org/1999/xlink">
    <defs>
        <symbol id="icon-arrow-outlined" viewBox="0 0 15 32">
        <path d="M11.882 8.773l-1.32-1.413-7.192 7.703c-0.116 0.123-0.208 0.27-0.271 0.432s-0.095 0.335-0.095 0.51c0 0.175 0.032 0.348 0.095 0.51s0.155 0.308 0.271 0.432l7.192 7.707 1.319-1.413-6.75-7.233 6.751-7.233z"></path>
        </symbol>
        <symbol id="icon-arrow-dis" viewBox="0 0 30 32">
<path d="M23.060 15.34c0.174 0.175 0.271 0.412 0.271 0.66s-0.098 0.484-0.271 0.66l-6.222 6.222c-0.085 0.092-0.189 0.165-0.303 0.216s-0.238 0.078-0.363 0.081c-0.125 0.002-0.25-0.021-0.366-0.068s-0.222-0.117-0.31-0.205c-0.089-0.089-0.159-0.194-0.205-0.31s-0.070-0.241-0.068-0.366c0.002-0.125 0.030-0.249 0.081-0.364s0.125-0.218 0.216-0.303l4.629-4.629h-12.681c-0.248 0-0.485-0.098-0.66-0.273s-0.273-0.412-0.273-0.66c0-0.248 0.098-0.485 0.273-0.66s0.412-0.273 0.66-0.273h12.681l-4.629-4.629c-0.165-0.177-0.255-0.411-0.25-0.653s0.102-0.473 0.273-0.643c0.171-0.171 0.402-0.269 0.644-0.273s0.476 0.085 0.653 0.25l6.222 6.222z"></path>
</symbol>
    </defs>
</svg>

