<svg aria-hidden="true" style="position: absolute; width: 0; height: 0; overflow: hidden;" version="1.1" xmlns="http://www.w3.org/2000/svg" xmlns:xlink="http://www.w3.org/1999/xlink">
    <defs>
        <symbol id="icon-arrow" viewBox="0 0 32 32">
            <path d="M24.127 15.34c0.174 0.175 0.271 0.412 0.271 0.66s-0.098 0.484-0.271 0.66l-6.222 6.222c-0.085 0.092-0.189 0.165-0.303 0.216s-0.238 0.078-0.363 0.081c-0.125 0.002-0.25-0.021-0.366-0.068s-0.222-0.117-0.31-0.205c-0.089-0.089-0.159-0.194-0.205-0.31s-0.070-0.241-0.068-0.366c0.002-0.125 0.030-0.249 0.081-0.364s0.125-0.218 0.216-0.303l4.629-4.629h-12.681c-0.248 0-0.485-0.098-0.66-0.273s-0.273-0.412-0.273-0.66c0-0.248 0.098-0.485 0.273-0.66s0.412-0.273 0.66-0.273h12.681l-4.629-4.629c-0.165-0.177-0.255-0.411-0.25-0.653s0.102-0.473 0.273-0.643c0.171-0.171 0.402-0.269 0.644-0.273s0.476 0.085 0.653 0.25l6.222 6.222z"></path>
        </symbol>
        <symbol id="icon-burger" viewBox="0 0 32 32">
            <path stroke-linejoin="round" stroke-linecap="round" stroke-miterlimit="4" stroke-width="2.6667" d="M4 8.001h24M4 16.001h24M4 24.001h24"></path>
        </symbol>
        <symbol id="icon-close" viewBox="0 0 32 32">
            <path d="M8.533 25.333l-1.867-1.867 7.467-7.467-7.467-7.467 1.867-1.867 7.467 7.467 7.467-7.467 1.867 1.867-7.467 7.467 7.467 7.467-1.867 1.867-7.467-7.467-7.467 7.467z"></path>
        </symbol>
        <symbol id="icon-extend-arrow" viewBox="0 0 32 32">
            <path stroke-linejoin="miter" stroke-linecap="butt" stroke-miterlimit="4" stroke-width="3.2" d="M24 12l-8 8-8-8"></path>
        </symbol>
        <symbol id="icon-slide-arrow" viewBox="0 0 32 32">
            <path stroke-linejoin="miter" stroke-linecap="butt" stroke-miterlimit="4" stroke-width="3.2" d="M12 24l8-8-8-8"></path>
        </symbol>
        <symbol id="icon-arrow-back" viewBox="0 0 16 32">
            <path d="M12.731 8.773l-1.415-1.413-7.705 7.703c-0.124 0.123-0.223 0.27-0.29 0.432s-0.102 0.335-0.102 0.51 0.035 0.348 0.102 0.51c0.067 0.162 0.166 0.308 0.29 0.432l7.705 7.707 1.413-1.413-7.232-7.233 7.233-7.233z"></path>
        </symbol>
        <symbol id="icon-quote-right" viewBox="0 0 40 32">
            <path d="M38.054 9.445c0 4.137-0.748 6.579-3.19 10.542-2.517 4.037-7.451 8-11.040 9.844l-1.146-2.218c3.090-2.193 5.084-3.913 7.277-8.124 0.623-1.196 0.972-2.243 1.171-3.19-0.474 0.1-0.997 0.15-1.52 0.15-4.536 0-8.199-3.688-8.199-8.224s3.663-8.224 8.199-8.224c3.763 0 6.953 2.542 7.9 6.031 0.349 0.997 0.549 2.118 0.549 3.414z"></path>
            <path d="M16.648 9.445c0 4.137-0.748 6.579-3.19 10.542-2.517 4.037-7.452 8-11.040 9.844l-1.146-2.218c3.090-2.193 5.084-3.913 7.277-8.124 0.623-1.196 0.972-2.243 1.171-3.19-0.473 0.1-0.997 0.15-1.52 0.15-4.536 0-8.199-3.688-8.199-8.224s3.663-8.224 8.199-8.224c3.763 0 6.953 2.542 7.9 6.031 0.349 0.997 0.548 2.118 0.548 3.414z"></path>
        </symbol>
        <symbol id="icon-star" viewBox="0 0 35 32">
            <path d="M16.625 2.555c0.261-0.804 1.399-0.804 1.66 0l2.893 8.903c0.117 0.36 0.452 0.603 0.83 0.603h9.361c0.846 0 1.197 1.082 0.513 1.579l-7.574 5.503c-0.306 0.222-0.434 0.616-0.317 0.976l2.893 8.903c0.261 0.804-0.659 1.473-1.343 0.976l-7.574-5.503c-0.306-0.222-0.72-0.222-1.026 0l-7.574 5.503c-0.684 0.497-1.604-0.172-1.343-0.976l2.893-8.903c0.117-0.36-0.011-0.753-0.317-0.976l-7.574-5.503c-0.684-0.497-0.332-1.579 0.513-1.579h9.361c0.378 0 0.713-0.243 0.83-0.603l2.893-8.903z"></path>
        </symbol>
        <symbol id="icon-close-cookies" viewBox="0 0 32 32">
            <path d="M8.533 25.333l-1.867-1.867 7.467-7.467-7.467-7.467 1.867-1.867 7.467 7.467 7.467-7.467 1.867 1.867-7.467 7.467 7.467 7.467-1.867 1.867-7.467-7.467-7.467 7.467z"></path>
        </symbol>
        <symbol id="icon-proicons_cookies" viewBox="0 0 32 32">
            <path stroke-linejoin="round" stroke-linecap="round" stroke-miterlimit="4" stroke-width="2.1333" d="M23.33 14.349c0.351 0.351 0.767 0.629 1.226 0.819s0.95 0.288 1.446 0.288c0.496 0 0.987-0.098 1.446-0.288s0.875-0.468 1.226-0.819c0.174-0.176 0.497-0.104 0.54 0.14 0.472 2.662 0.082 5.404-1.112 7.829s-3.13 4.406-5.527 5.655c-2.397 1.249-5.13 1.701-7.802 1.29s-5.142-1.663-7.053-3.575c-1.912-1.911-3.164-4.382-3.575-7.053s0.041-5.405 1.29-7.802c1.249-2.397 3.23-4.333 5.655-5.527s5.168-1.583 7.829-1.112c0.244 0.043 0.316 0.365 0.14 0.541-0.561 0.561-0.93 1.283-1.058 2.066s-0.005 1.585 0.35 2.294c0.354 0.709 0.923 1.289 1.625 1.656s1.502 0.506 2.287 0.394c-0.083 0.58-0.029 1.172 0.156 1.728s0.498 1.061 0.912 1.476z"></path>
            <path d="M11.551 22.885c0.948 0 1.717-0.769 1.717-1.717s-0.769-1.717-1.717-1.717c-0.948 0-1.717 0.769-1.717 1.717s0.769 1.717 1.717 1.717z"></path>
            <path d="M10.179 14.644c0.948 0 1.717-0.769 1.717-1.717s-0.769-1.717-1.717-1.717c-0.948 0-1.717 0.769-1.717 1.717s0.769 1.717 1.717 1.717z"></path>
            <path d="M17.047 18.765c0.948 0 1.717-0.769 1.717-1.717s-0.769-1.717-1.717-1.717c-0.948 0-1.717 0.769-1.717 1.717s0.769 1.717 1.717 1.717z"></path>
            <path d="M21.167 24.258c0.948 0 1.717-0.769 1.717-1.717s-0.769-1.717-1.717-1.717c-0.948 0-1.717 0.769-1.717 1.717s0.769 1.717 1.717 1.717z"></path>
       </symbol>
    </defs>
</svg>